<svg width="96" height="96" viewBox="0 0 96 96" xmlns="http://www.w3.org/2000/svg" role="img" aria-label="Falklands Explore — penguin on compass logo">
  <rect width="96" height="96" rx="20" fill="#0F6E56"/>
  <ellipse cx="48" cy="74" rx="16" ry="4" fill="#085041" opacity="0.5"/>
  <path d="M34 58 Q34 72 48 78 Q62 72 62 58 L62 50 Q62 42 48 42 Q34 42 34 50 Z" fill="#EF9F27"/>
  <ellipse cx="48" cy="47" rx="16" ry="19" fill="#2C2C2A"/>
  <ellipse cx="48" cy="52" rx="10" ry="13" fill="#F1EFE8"/>
  <ellipse cx="42" cy="35" rx="6" ry="7" fill="#2C2C2A"/>
  <ellipse cx="54" cy="35" rx="6" ry="7" fill="#2C2C2A"/>
  <circle cx="43" cy="33" r="2.5" fill="white"/>
  <circle cx="55" cy="33" r="2.5" fill="white"/>
  <circle cx="43.8" cy="33" r="1.1" fill="#2C2C2A"/>
  <circle cx="55.8" cy="33" r="1.1" fill="#2C2C2A"/>
  <ellipse cx="48" cy="41" rx="3.5" ry="2.5" fill="#EF9F27"/>
  <ellipse cx="38" cy="58" rx="6" ry="3.5" fill="#EF9F27"/>
  <ellipse cx="58" cy="58" rx="6" ry="3.5" fill="#EF9F27"/>
  <circle cx="72" cy="24" r="12" fill="#185FA5" stroke="#5DCAA5" stroke-width="1.5"/>
  <circle cx="72" cy="24" r="3" fill="#F1EFE8"/>
  <polygon points="72,13 74.5,22 72,20 69.5,22" fill="#EF9F27"/>
  <polygon points="72,35 69.5,26 72,28 74.5,26" fill="#F1EFE8"/>
  <polygon points="61,24 70,21.5 68,24 70,26.5" fill="#F1EFE8"/>
  <polygon points="83,24 74,26.5 76,24 74,21.5" fill="#F1EFE8"/>
</svg>
